<svg width="128" height="128" viewBox="0 0 128 128" fill="none" xmlns="http://www.w3.org/2000/svg">
  <defs>
    <linearGradient id="g" x1="0" y1="0" x2="128" y2="128" gradientUnits="userSpaceOnUse">
      <stop stop-color="#0B5FFF"/>
      <stop offset="0.6" stop-color="#7B61FF"/>
      <stop offset="1" stop-color="#B75CFF"/>
    </linearGradient>
  </defs>
  <circle cx="64" cy="64" r="60" fill="url(#g)"/>
  <g fill="#FFFFFF">
    <path d="M46 44a4 4 0 0 1 4-4h28a4 4 0 0 1 4 4v40a4 4 0 0 1-4 4H50a4 4 0 0 1-4-4V44zm10 4h16v24a8 8 0 1 1-16 0V48z"/>
    <rect x="36" y="58" width="8" height="12" rx="3"/>
    <rect x="84" y="58" width="8" height="12" rx="3"/>
  </g>
</svg>

